<svg xmlns="http://www.w3.org/2000/svg" viewBox="0 0 979.25 1740.75"><defs><style>.cls-1{fill:#f49637;}.cls-1,.cls-2,.cls-3,.cls-4,.cls-5{stroke:#000;stroke-miterlimit:10;}.cls-1,.cls-4,.cls-5{stroke-width:14px;}.cls-2,.cls-5{fill:#fff;}.cls-2,.cls-3{stroke-width:12px;}</style></defs><title>Asset 4</title><g id="Layer_2" data-name="Layer 2"><g id="Arms_Down" data-name="Arms Down"><path class="cls-1" d="M233.05,898.16c-15.69,35.71-38.87,65.57-56.87,99.6-22.55,42.63-36.65,91.16-47.53,140.19-24.07,108.57-33,225.23-6.81,333.07s91.82,205.2,179.82,237c-22.89,22.52-56.26,22.85-83.68,10.06s-50.26-36.73-72.45-60.26c-17.17-18.21-34.45-36.62-48.14-58.83-16.87-27.35-27.68-59.46-38.32-91.17-14.36-42.8-28.76-85.79-38-130.68C11.24,1329,7.49,1279.15,7,1229.5c-.37-40.93,1.54-82.25,10.31-121.75,7.35-33.09,19.38-64.28,30.86-95.56,19.46-53,36-106.53,48.71-162.56,7.32-32.29,13.15-75.87,36.14-97.92,24.39-23.4,65.37-18.07,88.88,4.19C258.61,790.64,252.79,853.23,233.05,898.16Z"/><path class="cls-1" d="M692.11,620.49c-31.87-20.71-78.33-14.89-104.11,13-17.5,19-25,45-29.54,70.4C526.2,883.32,611.28,1063.32,611,1245.59c-.06,42.63-4.81,85.17-4.38,127.79.65,64.65,13.17,128.53,26.26,191.84,6.43,31.11,13.11,62.49,26.38,91.35s33.87,55.39,62.09,70c-13.12-38.53-15.56-79.76-17.89-120.39q-2.72-47.09-5.41-94.16c-4.78-83.32-9.56-166.93-3.6-250.17,3.71-51.9,11.6-103.68,9.85-155.68-1.3-38.37-7.83-76.42-9-114.8-1-32.83,2-65.64,5-98.36q3.92-43,7.84-85.93c2.31-25.37-.73-60.12,8.06-83.95,7-19.05,15.32-27.76,10.47-50.59C722.3,651.66,710.12,632.19,692.11,620.49Z"/><path class="cls-1" d="M746.2,845.88c15.69,35.71,38.87,65.57,56.87,99.6,22.55,42.63,36.65,91.16,47.52,140.19,24.08,108.57,33,225.23,6.82,333.07s-91.82,205.2-179.82,237c22.89,22.51,56.25,22.85,83.68,10s50.25-36.72,72.45-60.25c17.17-18.21,34.45-36.63,48.14-58.83,16.86-27.35,27.68-59.46,38.32-91.17,14.35-42.81,28.76-85.79,38-130.68,9.87-48.16,13.62-98,14.07-147.62.36-40.93-1.54-82.25-10.31-121.74-7.35-33.09-19.38-64.28-30.86-95.56-19.46-53-36-106.53-48.71-162.56-7.32-32.29-13.15-75.88-36.14-97.93-24.39-23.39-65.37-18.06-88.88,4.2C720.63,738.35,726.46,801,746.2,845.88Z"/><path class="cls-1" d="M323.29,618.11c31.87-20.71,78.33-14.89,104.11,13,17.5,19,25,45,29.54,70.4,32.26,179.39-52.82,359.39-52.57,541.66.06,42.63,4.81,85.16,4.38,127.79-.65,64.65-13.17,128.53-26.26,191.84-6.43,31.11-13.11,62.49-26.38,91.35s-33.87,55.39-62.09,70c13.12-38.54,15.56-79.76,17.89-120.4q2.7-47.07,5.41-94.15c4.78-83.33,9.56-166.93,3.6-250.18-3.72-51.89-11.6-103.67-9.85-155.67,1.3-38.37,7.83-76.42,9-114.8,1-32.84-2-65.65-5-98.36q-3.92-43-7.84-85.93c-2.31-25.37.73-60.12-8.06-83.95-7-19.05-15.32-27.77-10.47-50.6C293.1,649.28,305.28,629.81,323.29,618.11Z"/><ellipse class="cls-1" cx="497.51" cy="663.55" rx="378.38" ry="360.15"/><path class="cls-2" d="M322.12,546.82c-2.8-10.29-6.46-20.61-13.2-28.86s-17.11-14.18-27.73-13.24c-13.19,1.17-23.34,12.2-30,23.64-17.12,29.38-19.93,64.65-22.35,98.57-1.54,21.55-2.91,44.1,5.75,63.89s30.82,35.5,51.52,29.28c13.67-10.46,28-21.86,33.61-38.15C332.3,645.13,332.78,584.1,322.12,546.82Z"/><ellipse class="cls-3" cx="273.96" cy="624" rx="25.29" ry="51.19"/><path class="cls-2" d="M751.05,546.82c-2.8-10.29-6.46-20.61-13.21-28.86s-17.11-14.18-27.73-13.24c-13.19,1.17-23.34,12.2-30,23.64C663,557.74,660.17,593,657.75,626.93c-1.53,21.55-2.91,44.1,5.75,63.89s30.82,35.5,51.52,29.28c13.67-10.46,28.05-21.86,33.61-38.15C761.22,645.13,761.7,584.1,751.05,546.82Z"/><ellipse class="cls-3" cx="702.88" cy="633.02" rx="25.29" ry="51.19"/><ellipse class="cls-1" cx="490.81" cy="786.36" rx="115.08" ry="121.92"/><ellipse class="cls-4" cx="490.81" cy="786.36" rx="66.95" ry="62.05"/><rect class="cls-4" x="138.43" y="34.68" width="164.45" height="245.24" transform="translate(-50.06 145.21) rotate(-32.93)"/><rect class="cls-5" x="144.13" y="149.02" width="164.45" height="34.15" transform="translate(-53.93 149.72) rotate(-32.93)"/><ellipse class="cls-4" cx="301.66" cy="285.06" rx="130.48" ry="19.96" transform="translate(-106.49 209.76) rotate(-32.93)"/></g></g></svg>