<svg xmlns="http://www.w3.org/2000/svg" viewBox="0 0 2489.46 1740.75"><defs><style>.cls-1{fill:#f49637;}.cls-1,.cls-2,.cls-3,.cls-4,.cls-5{stroke:#000;stroke-miterlimit:10;}.cls-1,.cls-4,.cls-5{stroke-width:14px;}.cls-2,.cls-5{fill:#fff;}.cls-2,.cls-3{stroke-width:12px;}</style></defs><title>Asset 1</title><g id="Layer_2" data-name="Layer 2"><g id="Flexing"><path class="cls-1" d="M835.39,779.8c-35.71-15.69-65.57-38.86-99.6-56.86-42.63-22.56-91.16-36.66-140.19-47.53-108.57-24.07-225.23-33-333.07-6.81s-205.2,91.82-237,179.81C3,825.53,2.71,792.16,15.5,764.74s36.73-50.26,60.26-72.45c18.21-17.17,36.62-34.46,58.83-48.15,27.35-16.86,59.46-27.68,91.17-38.31,42.8-14.36,85.79-28.76,130.68-38,48.16-9.87,98-13.63,147.61-14.07,40.93-.37,82.25,1.54,121.75,10.31,33.09,7.35,64.28,19.37,95.56,30.85,53,19.47,106.53,36,162.56,48.72,32.29,7.31,75.87,13.15,97.92,36.13,23.4,24.39,18.07,65.38-4.19,88.89C942.91,805.37,880.32,799.55,835.39,779.8Z"/><path class="cls-1" d="M1476.92,620.49c-31.88-20.71-78.33-14.89-104.11,13-17.5,19-25,45-29.54,70.4-32.26,179.39,52.82,359.39,52.57,541.66-.06,42.63-4.81,85.17-4.38,127.79.65,64.65,13.17,128.53,26.26,191.84,6.43,31.11,13.1,62.49,26.38,91.35s33.87,55.39,62.09,70c-13.12-38.53-15.57-79.76-17.9-120.39l-5.4-94.16c-4.78-83.32-9.56-166.93-3.6-250.17,3.71-51.9,11.6-103.68,9.84-155.68-1.29-38.37-7.82-76.42-9-114.8-1-32.83,2-65.64,5-98.36l7.83-85.93c2.32-25.37-.72-60.12,8.07-83.95,7-19.05,15.32-27.76,10.47-50.59C1507.11,651.66,1494.93,632.19,1476.92,620.49Z"/><path class="cls-1" d="M1654.07,800.2c35.71-15.69,65.57-38.86,99.6-56.87,42.63-22.55,91.16-36.65,140.19-47.52,108.57-24.08,225.23-33,333.07-6.82s205.2,91.82,237,179.82c22.52-22.88,22.85-56.25,10.06-83.67s-36.73-50.26-60.26-72.46c-18.21-17.17-36.62-34.45-58.83-48.14-27.35-16.86-59.46-27.68-91.17-38.32-42.8-14.35-85.79-28.76-130.68-38-48.16-9.87-98-13.62-147.61-14.07-40.93-.36-82.25,1.54-121.75,10.31-33.09,7.35-64.28,19.38-95.56,30.86-53,19.46-106.53,36-162.56,48.71-32.29,7.32-75.87,13.15-97.92,36.14-23.4,24.39-18.07,65.37,4.19,88.88C1546.55,825.77,1609.14,819.94,1654.07,800.2Z"/><path class="cls-1" d="M1108.1,618.11c31.87-20.71,78.33-14.89,104.11,13,17.5,19,25,45,29.53,70.4,32.27,179.39-52.81,359.39-52.56,541.66.06,42.63,4.8,85.16,4.38,127.79-.65,64.65-13.17,128.53-26.26,191.84-6.43,31.11-13.11,62.49-26.38,91.35s-33.88,55.39-62.09,70c13.12-38.54,15.56-79.76,17.89-120.4l5.4-94.15c4.78-83.33,9.56-166.93,3.61-250.18-3.72-51.89-11.6-103.67-9.85-155.67,1.29-38.37,7.83-76.42,9-114.8,1-32.84-2-65.65-5-98.36q-3.93-43-7.84-85.93c-2.31-25.37.73-60.12-8.06-83.95-7-19.05-15.32-27.77-10.47-50.6C1077.91,649.28,1090.09,629.81,1108.1,618.11Z"/><ellipse class="cls-1" cx="1282.32" cy="663.55" rx="378.38" ry="360.15"/><path class="cls-2" d="M1106.93,546.82c-2.8-10.29-6.46-20.61-13.21-28.86s-17.11-14.18-27.72-13.24c-13.19,1.17-23.34,12.2-30,23.64-17.12,29.38-19.94,64.65-22.35,98.57-1.54,21.55-2.91,44.1,5.75,63.89s30.82,35.5,51.51,29.28c13.68-10.46,28-21.86,33.62-38.15C1117.11,645.13,1117.58,584.1,1106.93,546.82Z"/><ellipse class="cls-3" cx="1058.77" cy="624" rx="25.29" ry="51.19"/><path class="cls-2" d="M1535.85,546.82c-2.79-10.29-6.46-20.61-13.2-28.86s-17.11-14.18-27.73-13.24c-13.19,1.17-23.34,12.2-30,23.64-17.12,29.38-19.93,64.65-22.35,98.57-1.54,21.55-2.91,44.1,5.75,63.89s30.82,35.5,51.52,29.28c13.67-10.46,28-21.86,33.61-38.15C1546,645.13,1546.51,584.1,1535.85,546.82Z"/><ellipse class="cls-3" cx="1487.69" cy="633.02" rx="25.29" ry="51.19"/><ellipse class="cls-1" cx="1275.62" cy="786.36" rx="115.08" ry="121.92"/><ellipse class="cls-4" cx="1275.62" cy="786.36" rx="66.95" ry="62.05"/><rect class="cls-4" x="923.23" y="34.68" width="164.45" height="245.24" transform="translate(76.01 571.81) rotate(-32.93)"/><rect class="cls-5" x="928.94" y="149.02" width="164.45" height="34.15" transform="translate(72.14 576.32) rotate(-32.93)"/><ellipse class="cls-4" cx="1086.47" cy="285.06" rx="130.48" ry="19.96" transform="translate(19.58 636.37) rotate(-32.93)"/></g></g></svg>